<?xml version="1.0" standalone="no"?>
<!DOCTYPE svg PUBLIC "-//W3C//DTD SVG 20010904//EN"
 "http://www.w3.org/TR/2001/REC-SVG-20010904/DTD/svg10.dtd">
<svg version="1.0" xmlns="http://www.w3.org/2000/svg"
 width="19.000000pt" height="18.000000pt" viewBox="0 0 19.000000 18.000000"
 preserveAspectRatio="xMidYMid meet">

<g transform="translate(0.000000,18.000000) scale(0.100000,-0.100000)"
fill="#000000" stroke="none">
<path d="M0 171 c0 -6 4 -12 9 -15 15 -10 18 -75 4 -80 -22 -9 -14 -43 14 -61
21 -14 30 -15 45 -6 14 8 23 8 38 -1 23 -15 46 1 37 25 -4 11 -20 14 -66 12
-34 -1 -61 1 -61 6 0 4 28 9 63 11 60 3 63 4 82 40 11 20 16 40 13 44 -4 4
-39 9 -78 12 -39 2 -73 9 -76 13 -7 12 -24 11 -24 0z m153 -37 c3 -3 1 -17 -5
-30 -10 -21 -18 -24 -60 -24 -47 0 -48 1 -48 30 0 30 1 30 53 30 30 0 56 -3
60 -6z"/>
</g>
</svg>
