<?xml version="1.0" standalone="no"?>
<!DOCTYPE svg PUBLIC "-//W3C//DTD SVG 20010904//EN"
 "http://www.w3.org/TR/2001/REC-SVG-20010904/DTD/svg10.dtd">
<svg version="1.0" xmlns="http://www.w3.org/2000/svg"
 width="20.000000pt" height="19.000000pt" viewBox="0 0 20.000000 19.000000"
 preserveAspectRatio="xMidYMid meet">

<g transform="translate(0.000000,19.000000) scale(0.100000,-0.100000)"
fill="#000000" stroke="none">
<path d="M19 169 c-36 -36 -16 -95 47 -138 l34 -24 34 24 c63 43 83 102 47
138 -27 27 -135 27 -162 0z m149 -11 c23 -19 13 -59 -24 -94 -19 -19 -40 -34
-46 -34 -5 0 -25 15 -44 34 -35 35 -44 72 -23 93 14 14 119 14 137 1z"/>
</g>
</svg>
